<?xml version="1.0" encoding="UTF-8"?>
<svg id="Layer_1" data-name="Layer 1" xmlns="http://www.w3.org/2000/svg" viewBox="0 0 52.01 84">
  <defs>
    <style>
      .cls-1 {
        fill: #f8f2ed;
      }
    </style>
  </defs>
  <path class="cls-1" d="m42,20h8c1.1,0,2-.9,2-2V2c0-1.1-.9-2-2-2h-12c-12.13,0-22,9.87-22,22v10.16H2c-1.1,0-2,.9-2,2v15.84c0,1.1.9,2,2,2h12.61v30c0,1.1.9,2,2,2h16.7c1.1,0,2-.9,2-2v-30h10.52c.91,0,1.71-.61,1.94-1.5l4.17-16c.16-.6.03-1.24-.35-1.73-.38-.49-.96-.78-1.58-.78h-14v-6c0-3.31,2.69-6,6-6h-.01Zm-8,16.01h13.41l-3.13,12h-10.98c-1.1,0-2,.9-2,2v30h-12.7v-30c0-1.1-.9-2-2-2H3.99v-11.84h14c1.1,0,2-.9,2-2v-12.16c0-9.92,8.07-18,18-18h10v12h-6c-5.51,0-10,4.49-10,10v8c0,1.1.9,2,2,2h0Z"/>
</svg>