<?xml version="1.0" encoding="UTF-8"?>
<svg id="Layer_1" data-name="Layer 1" xmlns="http://www.w3.org/2000/svg" viewBox="0 0 93.75 93.75">
  <defs>
    <style>
      .cls-1 {
        fill: #f8f2ed;
      }
    </style>
  </defs>
  <path class="cls-1" d="m71.88,0H21.88c-5.8,0-11.36,2.31-15.46,6.41C2.31,10.52,0,16.07,0,21.88v50c0,5.8,2.31,11.36,6.41,15.46,4.1,4.1,9.66,6.41,15.46,6.41h50c5.8,0,11.36-2.31,15.46-6.41,4.1-4.1,6.41-9.66,6.41-15.46V21.88c0-5.8-2.31-11.36-6.41-15.46C83.23,2.31,77.68,0,71.88,0Zm15.62,71.88c0,4.14-1.65,8.11-4.58,11.04s-6.9,4.58-11.04,4.58H21.88c-4.14,0-8.11-1.65-11.04-4.58s-4.58-6.9-4.58-11.04V21.88c0-4.14,1.65-8.11,4.58-11.04s6.9-4.58,11.04-4.58h50c4.14,0,8.11,1.65,11.04,4.58s4.58,6.9,4.58,11.04v50ZM46.88,25c-5.8,0-11.37,2.3-15.47,6.41s-6.41,9.67-6.41,15.47,2.3,11.37,6.41,15.47c4.1,4.1,9.67,6.41,15.47,6.41s11.37-2.3,15.47-6.41c4.1-4.1,6.41-9.67,6.41-15.47,0-5.8-2.31-11.36-6.41-15.46-4.1-4.1-9.66-6.41-15.46-6.41h0Zm0,37.5c-4.14,0-8.12-1.64-11.05-4.58-2.93-2.93-4.58-6.9-4.58-11.05s1.64-8.12,4.58-11.05c2.93-2.93,6.9-4.58,11.05-4.58s8.12,1.64,11.05,4.58c2.93,2.93,4.58,6.9,4.58,11.05,0,4.14-1.65,8.11-4.58,11.04s-6.9,4.58-11.04,4.58h0Zm32.03-42.19c0,2.21-1.33,4.21-3.38,5.05-2.04.85-4.4.38-5.96-1.18s-2.03-3.92-1.18-5.96c.84-2.04,2.84-3.38,5.05-3.38,3.02,0,5.47,2.45,5.47,5.47h0Z"/>
</svg>