<?xml version="1.0" encoding="UTF-8"?>
<svg id="Layer_1" data-name="Layer 1" xmlns="http://www.w3.org/2000/svg" viewBox="0 0 72.05 61.44">
  <defs>
    <style>
      .cls-1 {
        fill: #f8f2ed;
      }
    </style>
  </defs>
  <path class="cls-1" d="m9.31,27.62h24.64v3.09H9.31v-3.09Zm.17,18.95h3.09v-3.09h-3.09v3.09Zm7.13,0h3.09v-3.09h-3.09v3.09Zm7.12,0h3.09v-3.09h-3.09v3.09Zm7.13,0h3.09v-3.09h-3.09v3.09Zm-21.38-8.18h3.09v-3.09h-3.09v3.09Zm7.13,0h3.09v-3.09h-3.09v3.09Zm7.12,0h3.09v-3.09h-3.09v3.09Zm7.13,0h3.09v-3.09h-3.09v3.09Zm7.13,0h3.09v-3.09h-3.09v3.09Zm0-8.01h3.09v-3.09h-3.09v3.09Zm10.21-3.09h-3.09v3.09h3.09v-3.09Zm7.12,0h-3.09v3.09h3.09v-3.09Zm16.73,20.26c0,7.66-6.23,13.89-13.89,13.89-4.31,0-8.16-1.97-10.71-5.05H4.39c-2.42,0-4.39-1.97-4.39-4.39V10.87c0-2.42,1.97-4.39,4.39-4.39h8.96v-2.33c0-2.29,1.86-4.15,4.15-4.15s4.15,1.86,4.15,4.15v2.33h21.52v-2.33c0-2.29,1.86-4.15,4.15-4.15s4.15,1.86,4.15,4.15v2.33h8.96c2.42,0,4.39,1.97,4.39,4.39v24.48c4.3,2.36,7.23,6.95,7.23,12.2Zm-13.89,10.81c5.96,0,10.81-4.85,10.81-10.81,0-3.45-1.63-6.53-4.16-8.51-.92-.72-1.96-1.29-3.09-1.69-1.12-.39-2.31-.61-3.56-.61-.98,0-1.93.14-2.83.39-1.03.28-1.99.71-2.88,1.26-3.05,1.91-5.1,5.3-5.1,9.16,0,2.12.62,4.09,1.68,5.76.71,1.12,1.62,2.1,2.68,2.9,1.8,1.34,4.03,2.15,6.45,2.15Zm-11.91-48.79v2.33c0,.58.48,1.06,1.06,1.06s1.06-.48,1.06-1.06v-7.75c0-.58-.48-1.06-1.06-1.06s-1.06.48-1.06,1.06v5.42Zm-29.82,0v2.33c0,.58.48,1.06,1.06,1.06s1.06-.48,1.06-1.06v-7.75c0-.58-.48-1.06-1.06-1.06s-1.06.48-1.06,1.06v5.42ZM3.09,20.56h58.63v-9.69c0-.72-.58-1.3-1.3-1.3h-8.96v2.33c0,2.29-1.86,4.15-4.15,4.15s-4.15-1.86-4.15-4.15v-2.33h-21.52v2.33c0,2.29-1.86,4.15-4.15,4.15s-4.15-1.86-4.15-4.15v-2.33H4.38c-.72,0-1.3.58-1.3,1.3v9.69h.01Zm42.44,32.75c-.8-1.76-1.26-3.7-1.26-5.76,0-3.51,1.32-6.71,3.47-9.16h-2.62v-3.09h6.49c1.95-1.05,4.19-1.65,6.56-1.65,1.23,0,2.42.18,3.56.48v-10.49H3.09v28.36c0,.72.58,1.3,1.3,1.3h41.14Zm17.19-7.29h-3.02v-6.02h-3.09v9.11h8.25v-3.09h-2.14Z"/>
</svg>