<?xml version="1.0" encoding="utf-8"?>
<!-- Generator: Adobe Illustrator 27.2.0, SVG Export Plug-In . SVG Version: 6.00 Build 0)  -->
<svg version="1.1" id="Layer_1" xmlns="http://www.w3.org/2000/svg" xmlns:xlink="http://www.w3.org/1999/xlink" x="0px" y="0px"
	 viewBox="0 0 110 135" style="enable-background:new 0 0 110 135;" xml:space="preserve">
<style type="text/css">
	.st0{fill:#727272;}
</style>
<path class="st0" d="M49.9,17.2c-23.3,3.2-33.9,31.9-20,51.1c6.7,9.2,18.4,25.6,25.2,34.9l11.5-16.1c4.6-7,17.4-21.6,18.7-29.9
	C90.8,36.1,73,13.2,49.9,17.2L49.9,17.2z M41.7,48.1L41.7,48.1c0.1-7.3,6-13.1,13.2-13.1c7.3,0,13.2,5.9,13.2,13.1
	c-0.1,7.3-6,13.1-13.2,13.1C47.7,61.2,41.8,55.3,41.7,48.1L41.7,48.1z"/>
</svg>
